<svg width="177" height="34" viewBox="0 0 177 34" fill="none" xmlns="http://www.w3.org/2000/svg">
<g clip-path="url(#clip0_10427_1208)">
<path d="M27.8405 8.09417C28.6922 7.23598 29.2181 6.05201 29.2181 4.74332C29.2181 2.12407 27.1055 0 24.5004 0C22.8526 0 21.4047 0.850745 20.5604 2.1371C20.3364 2.36235 1.55292 25.6396 1.37703 25.9058C0.525338 26.764 -0.000488281 27.948 -0.000488281 29.2567C-0.000488281 31.8759 2.11208 34 4.71714 34C6.36497 34 7.81285 33.1493 8.65713 31.8629C8.88117 31.6376 27.6646 8.36038 27.8405 8.09231V8.09417Z" fill="#1E62EC"/>
<path d="M38.7093 19.1389C39.5628 18.2807 40.0905 17.0949 40.0905 15.7843C40.0905 13.1651 37.9779 11.041 35.3728 11.041C33.725 11.041 32.2753 11.8918 31.4329 13.18C31.207 13.4071 21.3422 25.634 21.1644 25.9039C20.3109 26.7621 19.7832 27.9479 19.7832 29.2585C19.7832 31.8777 21.8958 34.0018 24.5008 34.0018C26.1487 34.0018 27.5984 33.1511 28.4408 31.8629C28.6667 31.6357 38.5315 19.4088 38.7093 19.1389Z" fill="#1E62EC"/>
<path d="M48.9997 4.74332C48.9997 7.36257 46.8871 9.48664 44.2821 9.48664C41.677 9.48664 39.5645 7.36257 39.5645 4.74332C39.5645 2.12407 41.6752 0 44.2821 0C46.889 0 48.9997 2.12407 48.9997 4.74332Z" fill="#1E62EC"/>
<path d="M9.43662 4.74332C9.43662 7.36257 7.32405 9.48664 4.71899 9.48664C2.11393 9.48664 -0.000488281 7.36443 -0.000488281 4.74332C-0.000488281 2.12221 2.11208 0 4.71714 0C7.3222 0 9.43476 2.12407 9.43476 4.74332H9.43662Z" fill="#1E62EC"/>
</g>
<path d="M62.2875 28L69.1003 8.62773H72.8967L79.7095 28H76.4332L74.951 23.6575H67.0721L65.5639 28H62.2875ZM67.9562 20.9272H74.0149L70.5825 10.786H71.4406L67.9562 20.9272ZM86.4864 28.312C85.4289 28.312 84.5015 28.078 83.7041 27.61C82.9066 27.1246 82.2826 26.4572 81.8318 25.6077C81.3985 24.741 81.1818 23.7442 81.1818 22.6174V13.9324H84.1201V22.3573C84.1201 22.9987 84.2501 23.5621 84.5102 24.0475C84.7702 24.5329 85.1342 24.9143 85.6023 25.1917C86.0703 25.4517 86.6077 25.5817 87.2145 25.5817C87.8385 25.5817 88.3846 25.443 88.8527 25.1657C89.3207 24.8883 89.6848 24.4983 89.9448 23.9955C90.2222 23.4928 90.3608 22.9034 90.3608 22.2273V13.9324H93.2732V28H90.4909V25.2437L90.8029 25.6077C90.4735 26.4745 89.9275 27.1419 89.1647 27.61C88.4019 28.078 87.5092 28.312 86.4864 28.312ZM95.4298 28V25.6597L105.363 11.358H96.0019V8.62773H109.289V10.942L99.3563 25.2697H109.523V28H95.4298ZM115.899 28.312C114.945 28.312 114.104 28.1474 113.376 27.818C112.666 27.4713 112.111 27.0032 111.712 26.4138C111.313 25.8071 111.114 25.0963 111.114 24.2816C111.114 23.5188 111.279 22.8341 111.608 22.2273C111.955 21.6206 112.484 21.1092 113.194 20.6931C113.905 20.2771 114.798 19.9824 115.873 19.809L120.761 19.0029V21.3172L116.445 22.0713C115.665 22.21 115.093 22.4614 114.729 22.8254C114.364 23.1721 114.182 23.6228 114.182 24.1776C114.182 24.7149 114.382 25.157 114.781 25.5037C115.197 25.8331 115.725 25.9978 116.367 25.9978C117.164 25.9978 117.858 25.8244 118.447 25.4777C119.054 25.131 119.522 24.6716 119.851 24.0995C120.181 23.5101 120.345 22.8601 120.345 22.1493V18.5349C120.345 17.8415 120.085 17.2781 119.565 16.8447C119.062 16.394 118.386 16.1686 117.537 16.1686C116.757 16.1686 116.072 16.3766 115.483 16.7927C114.911 17.1914 114.486 17.7115 114.208 18.3529L111.764 17.1307C112.024 16.4373 112.449 15.8306 113.038 15.3105C113.628 14.7731 114.312 14.3571 115.093 14.0624C115.89 13.7677 116.731 13.6203 117.615 13.6203C118.724 13.6203 119.704 13.8283 120.553 14.2444C121.42 14.6604 122.087 15.2412 122.555 15.9866C123.041 16.7147 123.284 17.5641 123.284 18.5349V28H120.475V25.4517L121.073 25.5297C120.744 26.1018 120.319 26.5958 119.799 27.0119C119.296 27.4279 118.716 27.7486 118.057 27.974C117.416 28.1994 116.696 28.312 115.899 28.312ZM126.719 33.2006V13.9324H129.528V16.8447L129.189 16.1686C129.71 15.3712 130.403 14.7471 131.27 14.2964C132.136 13.8457 133.125 13.6203 134.234 13.6203C135.569 13.6203 136.765 13.941 137.822 14.5824C138.897 15.2238 139.738 16.0993 140.345 17.2087C140.969 18.3182 141.281 19.5663 141.281 20.9532C141.281 22.34 140.969 23.5881 140.345 24.6976C139.738 25.8071 138.906 26.6912 137.848 27.3499C136.791 27.9913 135.586 28.312 134.234 28.312C133.142 28.312 132.145 28.0867 131.244 27.636C130.36 27.1852 129.675 26.5352 129.189 25.6857L129.658 25.1397V33.2006H126.719ZM133.948 25.5817C134.78 25.5817 135.517 25.3824 136.158 24.9836C136.8 24.5849 137.302 24.0389 137.666 23.3455C138.048 22.6347 138.239 21.8373 138.239 20.9532C138.239 20.0691 138.048 19.2803 137.666 18.5869C137.302 17.8935 136.8 17.3474 136.158 16.9487C135.517 16.55 134.78 16.3506 133.948 16.3506C133.133 16.3506 132.397 16.55 131.738 16.9487C131.096 17.3474 130.585 17.8935 130.204 18.5869C129.84 19.2803 129.658 20.0691 129.658 20.9532C129.658 21.8373 129.84 22.6347 130.204 23.3455C130.585 24.0389 131.096 24.5849 131.738 24.9836C132.397 25.3824 133.133 25.5817 133.948 25.5817ZM145.439 28V24.6196H148.43V28H145.439ZM153.44 28V8.62773H156.508V28H153.44ZM158.809 28L165.621 8.62773H169.418L176.231 28H172.954L171.472 23.6575H163.593L162.085 28H158.809ZM164.477 20.9272H170.536L167.104 10.786H167.962L164.477 20.9272Z" fill="#282828"/>
<defs>
<clipPath id="clip0_10427_1208">
<rect width="49" height="34" fill="white"/>
</clipPath>
</defs>
</svg>
