<svg width="72" height="108" viewBox="0 0 72 108" fill="none" xmlns="http://www.w3.org/2000/svg">
<path d="M60.2094 97.5023C60.1577 97.5407 60.1054 97.5785 60.052 97.6144L57.8228 94.2924C60.0518 97.6138 60.0504 97.6145 60.0492 97.6153C60.0487 97.6157 60.0476 97.6166 60.0468 97.6172L60.0232 97.6327C60.0098 97.6416 59.9924 97.6536 59.9713 97.6675C59.9291 97.6951 59.8717 97.7322 59.8 97.7782C59.656 97.8704 59.4528 97.9984 59.1969 98.1539C58.6857 98.4644 57.9579 98.8888 57.0576 99.3667C55.2678 100.317 52.7388 101.509 49.8275 102.435C44.2163 104.219 36.0064 105.361 29.3417 100.088C22.9999 95.072 21.8148 88.8198 22.3338 83.9577C22.5849 81.6057 23.2227 79.5988 23.785 78.192C24.0687 77.4823 24.3406 76.9065 24.55 76.4941C24.655 76.2874 24.7455 76.1198 24.8142 75.996C24.8486 75.9341 24.878 75.8825 24.9012 75.8424C24.9127 75.8225 24.9222 75.8051 24.9307 75.7907C24.9349 75.7834 24.9389 75.7769 24.9424 75.771C24.9441 75.7682 24.9463 75.7655 24.9478 75.7629C24.9486 75.7617 24.9493 75.7598 24.9496 75.7592C24.9511 75.7577 24.9896 75.779 28.3833 77.8108L24.9518 75.7564C24.982 75.7059 25.0137 75.6555 25.0462 75.6064C25.0465 75.6059 25.0468 75.6048 25.0474 75.6039C25.0498 75.6002 25.0544 75.594 25.0603 75.5849C25.0725 75.5662 25.0916 75.536 25.118 75.4954C25.1707 75.4141 25.2511 75.2897 25.3558 75.1255C25.5653 74.7967 25.8722 74.3084 26.2525 73.6856C27.0142 72.4385 28.0659 70.6593 29.2132 68.546C31.5315 64.2761 34.1455 58.8197 35.6229 53.7045C35.6268 53.6907 35.6323 53.6773 35.6364 53.6635C37.9204 44.8678 43.2177 39.8112 49.5302 38.1958C55.5972 36.6434 61.9859 38.4462 66.2831 42.0031C69.28 44.4837 72.431 46.1066 75.0459 47.214C76.3536 47.7678 77.5092 48.1859 78.4756 48.5334C78.9402 48.7005 79.4169 48.8711 79.813 49.0253C80.1348 49.1506 80.6872 49.3703 81.187 49.675L81.0386 49.5852C81.0789 49.6001 81.2362 49.6663 81.5911 49.8035C82.0859 49.9949 82.8012 50.2684 83.62 50.6067C85.2624 51.2855 87.4203 52.2675 89.6245 53.635C93.9402 56.3125 99.0671 60.8772 100.113 68.1437C101.115 75.0843 98.5403 80.1469 95.7223 83.3719C94.3409 84.9528 92.9077 86.0923 91.8184 86.8407C91.27 87.2175 90.7975 87.5024 90.4465 87.7009C90.2707 87.8004 90.1243 87.8788 90.0127 87.9367C89.9569 87.9656 89.9094 87.9901 89.8715 88.0089C89.8527 88.0182 89.8359 88.0256 89.8218 88.0325C89.8147 88.036 89.8084 88.0395 89.8025 88.0424C89.7995 88.0438 89.7962 88.0453 89.7936 88.0465C89.7923 88.0471 89.7908 88.0484 89.7902 88.0487C89.7883 88.0494 89.7734 88.0222 88.0638 84.44M60.2094 97.5023L60.2182 97.4951L60.2185 97.496L60.2176 97.4963C60.2166 97.4971 60.215 97.4979 60.2142 97.4986L60.2133 97.4989M60.2094 97.5023L60.2112 97.5017C60.2119 97.5012 60.2122 97.4997 60.2133 97.4989M60.2094 97.5023C60.2108 97.5013 60.2119 97.4999 60.2133 97.4989M60.2133 97.4989C60.2156 97.4972 60.2187 97.4958 60.221 97.4941L60.2206 97.4932C60.224 97.4908 60.2284 97.4881 60.2332 97.4847C60.2603 97.4652 60.3102 97.4302 60.3811 97.3811C60.5231 97.2829 60.75 97.1295 61.0554 96.937C61.6679 96.551 62.5878 96.0111 63.7574 95.4371C66.1127 94.2813 69.3897 93.0342 73.1633 92.5692C77.8322 92.0044 81.9414 90.8904 84.8754 89.9252C86.3488 89.4406 87.5405 88.9882 88.3749 88.652C88.7921 88.4839 89.1213 88.345 89.3528 88.2444C89.4684 88.1941 89.5602 88.1534 89.6261 88.1238C89.6589 88.1091 89.6855 88.0968 89.7056 88.0877C89.7156 88.0831 89.7246 88.0787 89.7313 88.0756C89.7346 88.0741 89.7377 88.0726 89.7402 88.0714L89.7448 88.0698C89.7455 88.0695 89.7465 88.0688 88.0638 84.44M88.0638 84.44L89.7865 88.05C89.7732 88.0564 89.76 88.063 89.7467 88.0692L88.0638 84.44ZM77.9984 16.9646C75.2286 18.0537 73.637 20.5531 73.0093 23.0784C72.3606 25.6883 72.6275 28.5738 73.5318 31.1556C74.436 33.7373 76.0276 36.1581 78.1627 37.7929C80.2954 39.4257 83.2138 40.3956 86.1515 39.3667C89.089 38.3377 90.7639 35.7593 91.4117 33.1527C92.0604 30.543 91.7937 27.6582 90.8896 25.0764C89.9854 22.4946 88.3937 20.0731 86.2583 18.4382C84.1257 16.8055 81.2081 15.8354 78.2705 16.8641L77.9984 16.9646ZM9.34673 41.0082C6.57718 42.0973 4.98631 44.5966 4.35861 47.1217C3.70989 49.7316 3.97591 52.6174 4.88015 55.1993C5.78441 57.781 7.37678 60.2014 9.51202 61.8362C11.6447 63.4689 14.5622 64.4392 17.4999 63.4103C20.4375 62.3814 22.1122 59.803 22.7601 57.1964C23.4088 54.5866 23.1421 51.7018 22.238 49.1201C21.3337 46.5382 19.7421 44.1167 17.6067 42.4819C15.4741 40.8491 12.5565 39.879 9.61886 40.9077L9.34673 41.0082ZM49.9271 -1.1882C46.9894 -0.159323 45.3151 2.42006 44.6672 5.02671C44.0186 7.63655 44.2851 10.5212 45.1893 13.103C46.0936 15.6848 47.685 18.1054 49.8203 19.7403C51.953 21.3731 54.8707 22.3442 57.8085 21.3153C60.7461 20.2864 62.4205 17.7071 63.0684 15.1004C63.717 12.4906 63.4504 9.60592 62.5462 7.02414C61.642 4.44239 60.0505 2.02173 57.9153 0.386866C55.7826 -1.24594 52.8648 -2.21703 49.9271 -1.1882ZM20.2337 9.21744C17.4639 10.3065 15.8723 12.806 15.2447 15.3313C14.5961 17.941 14.8626 20.8259 15.7668 23.4076C16.671 25.9893 18.2626 28.41 20.3978 30.0448C22.5303 31.6776 25.4483 32.6485 28.3859 31.6199C31.3237 30.591 32.9989 28.0113 33.6468 25.4047C34.2953 22.7949 34.0288 19.9101 33.1246 17.3284C32.2205 14.7467 30.6288 12.326 28.4937 10.6911C26.361 9.05827 23.4423 8.08749 20.5046 9.11636L20.2337 9.21744Z" stroke="url(#paint0_linear_10427_778)" stroke-width="8" stroke-linecap="round" stroke-linejoin="round"/>
<defs>
<linearGradient id="paint0_linear_10427_778" x1="6.3086" y1="15.5" x2="82.1835" y2="128.003" gradientUnits="userSpaceOnUse">
<stop stop-color="#3363FF"/>
<stop offset="0.727" stop-color="#3363FF" stop-opacity="0"/>
</linearGradient>
</defs>
</svg>
