<svg width="57" height="113" viewBox="0 0 57 113" fill="none" xmlns="http://www.w3.org/2000/svg">
<path d="M-32.4367 90.9185C-34.1195 94.5473 -34.1185 94.548 -34.1178 94.5483L-34.1168 94.5486C-34.1159 94.5491 -34.1146 94.5503 -34.1135 94.5508C-34.111 94.552 -34.1078 94.5535 -34.1046 94.555C-34.0978 94.5581 -34.0886 94.5616 -34.0785 94.5662C-34.0583 94.5754 -34.0313 94.5877 -33.9981 94.6026C-33.9317 94.6325 -33.8399 94.6741 -33.7232 94.7248C-33.4897 94.8263 -33.1572 94.9671 -32.7356 95.1369C-31.893 95.4763 -30.6891 95.9329 -29.2011 96.4224C-26.2381 97.397 -22.0888 98.5206 -17.3745 99.0909C-13.555 99.5615 -10.2387 100.825 -7.85571 101.994C-6.67256 102.575 -5.74281 103.121 -5.12279 103.512C-4.81352 103.707 -4.58297 103.862 -4.439 103.962C-4.36708 104.011 -4.3162 104.047 -4.28864 104.067C-4.28008 104.073 -4.2738 104.078 -4.2697 104.081C-4.27044 104.08 -4.27126 104.08 -4.27214 104.079C-4.21796 104.12 -4.16238 104.159 -4.10621 104.196L-1.87733 100.875L-4.10469 104.198C-4.10422 104.198 -4.10227 104.199 -4.10132 104.2C-4.09956 104.201 -4.0977 104.203 -4.09552 104.204C-4.09075 104.207 -4.08452 104.211 -4.07778 104.215C-4.06431 104.224 -4.04698 104.236 -4.0258 104.25C-3.9833 104.278 -3.92555 104.316 -3.85299 104.362C-3.70773 104.456 -3.50303 104.584 -3.24472 104.741C-2.72871 105.055 -1.99373 105.483 -1.08461 105.965C0.722585 106.925 3.27605 108.128 6.21488 109.063C11.881 110.865 20.1587 112.014 26.8764 106.699L26.877 106.7C33.2727 101.642 34.4664 95.3383 33.9431 90.4361C33.6898 88.0642 33.0462 86.0406 32.479 84.6215C32.1928 83.9052 31.9184 83.3236 31.7072 82.9077C31.6016 82.6997 31.5109 82.5317 31.4417 82.4071C31.4071 82.3447 31.3775 82.2926 31.3542 82.2523C31.3426 82.2321 31.3324 82.2148 31.3238 82.2002C31.3195 82.193 31.3155 82.1864 31.3121 82.1806C31.3104 82.1779 31.309 82.1752 31.3075 82.1728C31.3068 82.1715 31.3052 82.1694 31.3048 82.1687C31.2981 82.1705 31.1594 82.2509 27.8715 84.2195L31.303 82.165C31.2728 82.1146 31.241 82.0641 31.2086 82.015L31.2071 82.0135C31.2047 82.0097 31.2006 82.0029 31.1944 81.9935C31.1821 81.9747 31.1625 81.9446 31.1359 81.9037C31.0826 81.8216 31.0012 81.6957 30.8954 81.5297C30.6835 81.1973 30.3724 80.7034 29.9878 80.0736C29.2178 78.8129 28.1559 77.0139 26.9961 74.8777C24.6529 70.5618 22.0099 65.045 20.5157 59.8717C20.5107 59.8543 20.5039 59.8374 20.4986 59.8202C18.1925 50.9499 12.8512 45.8551 6.49119 44.2278C0.374543 42.6628 -6.06772 44.4818 -10.4006 48.0682C-13.4329 50.5781 -16.6206 52.2196 -19.2653 53.3396C-20.5882 53.8999 -21.7577 54.323 -22.7344 54.6742C-23.2041 54.8431 -23.6844 55.0156 -24.0839 55.1711C-24.4061 55.2966 -24.9534 55.5148 -25.451 55.816C-25.2398 55.6894 -25.1808 55.6869 -25.8803 55.9575C-26.3806 56.151 -27.1035 56.426 -27.9304 56.7678C-29.5889 57.4532 -31.7671 58.4455 -33.9918 59.8257C-38.2125 62.4443 -43.194 66.8467 -44.4599 73.7788L-44.5714 74.4578C-45.5815 81.4565 -42.9851 86.56 -40.1438 89.8117C-38.7507 91.406 -37.3055 92.5559 -36.2069 93.3106C-35.654 93.6905 -35.1778 93.9777 -34.8241 94.1778C-34.6468 94.2781 -34.4989 94.3566 -34.3866 94.4148C-34.3305 94.4439 -34.2833 94.4682 -34.2453 94.4871C-34.2263 94.4965 -34.2093 94.505 -34.195 94.5119C-34.188 94.5154 -34.1813 94.518 -34.1754 94.5209C-34.1724 94.5223 -34.1692 94.5238 -34.1665 94.525C-34.1652 94.5256 -34.1638 94.5269 -34.1631 94.5272C-34.1613 94.5281 -34.1542 94.5173 -32.4367 90.9185ZM-32.4367 90.9185L-34.1595 94.5285C-34.1462 94.5349 -34.1329 94.5415 -34.1196 94.5477L-32.4367 90.9185ZM-22.5542 22.6713C-19.6028 23.7049 -17.9179 26.2973 -17.2655 28.9221C-16.6123 31.55 -16.8799 34.4566 -17.7913 37.0592C-18.7028 39.6619 -20.3074 42.101 -22.4576 43.7472C-24.6051 45.3914 -27.5393 46.3661 -30.4907 45.3324C-33.4419 44.2987 -35.1261 41.7065 -35.7785 39.0819C-36.4317 36.4538 -36.1639 33.5466 -35.2524 30.9439C-34.3408 28.3413 -32.7364 25.9029 -30.5864 24.2568C-28.4389 22.6127 -25.5055 21.6378 -22.5542 22.6713ZM47.0927 47.0697C49.8755 48.164 51.4767 50.6761 52.1087 53.2188C52.7618 55.8467 52.4934 58.7531 51.582 61.3556C50.6705 63.9582 49.0667 66.3977 46.9166 68.0439C44.7691 69.6881 41.8348 70.6627 38.8835 69.6291C35.9321 68.5955 34.2472 66.0031 33.5948 63.3783C32.9416 60.7502 33.2094 57.8429 34.1209 55.2403C35.0324 52.6378 36.6369 50.1993 38.7869 48.5532C40.9344 46.909 43.8686 45.9343 46.82 46.968L47.0927 47.0697ZM6.36003 4.53125C9.1428 5.6255 10.744 8.13759 11.376 10.6804C12.0291 13.3082 11.7607 16.2147 10.8493 18.8171C9.93774 21.4198 8.33401 23.8593 6.18388 25.5055C4.03637 27.1497 1.10249 28.1234 -1.84891 27.0897C-4.80032 26.0561 -6.48555 23.4646 -7.13796 20.8398C-7.79114 18.2118 -7.52241 15.3048 -6.61087 12.7021C-5.69937 10.0997 -4.09573 7.6609 -1.94581 6.01472C0.201712 4.37053 3.13589 3.39587 6.08731 4.42953L6.36003 4.53125ZM35.8186 14.8422C38.77 15.8759 40.4549 18.4683 41.1073 21.0931C41.7604 23.721 41.4929 26.6276 40.5815 29.2302C39.6699 31.8329 38.0654 34.2719 35.9152 35.9182C33.7676 37.5623 30.8338 38.5361 27.8824 37.5024C24.9312 36.4687 23.2467 33.8775 22.5942 31.2528C21.941 28.6248 22.2089 25.7176 23.1204 23.1148C24.0319 20.5122 25.6363 18.0739 27.7864 16.4277C29.9338 14.7836 32.8673 13.8087 35.8186 14.8422Z" stroke="url(#paint0_linear_10427_773)" stroke-width="8" stroke-linecap="round" stroke-linejoin="round"/>
<defs>
<linearGradient id="paint0_linear_10427_773" x1="37.3287" y1="25.7825" x2="-6.6025" y2="98.1601" gradientUnits="userSpaceOnUse">
<stop stop-color="#3363FF"/>
<stop offset="0.727" stop-color="#3363FF" stop-opacity="0"/>
</linearGradient>
</defs>
</svg>
