<svg width="24" height="24" viewBox="0 0 24 24" fill="none" xmlns="http://www.w3.org/2000/svg">
<path d="M11.9997 2.16016C17.4255 2.16016 21.8397 6.57429 21.8397 12.0002C21.8397 17.426 17.4255 21.8402 11.9997 21.8402C6.5738 21.8402 2.15967 17.426 2.15967 12.0002C2.15967 6.57429 6.5738 2.16016 11.9997 2.16016ZM9.53967 16.2117C11.8825 16.2117 13.7888 14.3224 13.7888 12.0002C13.7888 11.5064 13.388 11.1056 12.8942 11.1056H9.83308C9.33929 11.1056 8.93853 11.5064 8.93853 12.0002C8.93853 12.4939 9.33929 12.8947 9.83308 12.8947H11.8257C11.4634 13.7888 10.5751 14.4226 9.53967 14.4226C8.18354 14.4226 7.07967 13.3362 7.07967 12.0002C7.07967 10.6642 8.18354 9.57773 9.53967 9.57773C10.0648 9.57773 10.5653 9.7383 10.9879 10.0424C11.3896 10.3318 11.9482 10.2392 12.2363 9.83849C12.5252 9.43773 12.4335 8.87864 12.0328 8.5897C11.3037 8.0655 10.4418 7.78819 9.53967 7.78819C7.19685 7.78819 5.29058 9.67747 5.29058 11.9997C5.29058 14.3219 7.19685 16.2117 9.53967 16.2117ZM18.0378 12.8947C18.5316 12.8947 18.9324 12.4939 18.9324 12.0002C18.9324 11.5064 18.5316 11.1056 18.0378 11.1056H17.6134V10.4571C17.6134 9.96328 17.2126 9.56252 16.7188 9.56252C16.2251 9.56252 15.8243 9.96328 15.8243 10.4571V11.1056H15.3542C14.8604 11.1056 14.4597 11.5064 14.4597 12.0002C14.4597 12.4939 14.8604 12.8947 15.3542 12.8947H15.8243V13.5432C15.8243 14.037 16.2251 14.4378 16.7188 14.4378C17.2126 14.4378 17.6134 14.037 17.6134 13.5432V12.8947H18.0378Z" fill="#293960"/>
</svg>
