<svg width="24" height="24" viewBox="0 0 24 24" fill="none" xmlns="http://www.w3.org/2000/svg">
<path d="M11.9113 2.16016C2.86732 2.16016 2.15967 2.8683 2.15967 11.9117V12.0886C2.15967 21.132 2.86732 21.8402 11.9113 21.8402H12.0881C21.132 21.8402 21.8397 21.132 21.8397 12.0886V12.0002C21.8397 2.87454 21.1253 2.16016 11.9997 2.16016H11.9113ZM17.9008 5.11216C18.4444 5.11068 18.8862 5.54961 18.8877 6.09327C18.8891 6.63693 18.4502 7.07868 17.9065 7.08016C17.3629 7.08163 16.9211 6.6427 16.9197 6.09904C16.9182 5.55538 17.3571 5.11363 17.9008 5.11216ZM11.9881 7.08016C14.705 7.07376 16.9133 9.2718 16.9197 11.9886C16.9261 14.7054 14.728 16.9138 12.0112 16.9202C9.29437 16.9266 7.08606 14.7285 7.07967 12.0117C7.07327 9.29486 9.27131 7.08655 11.9881 7.08016ZM11.9929 9.04816C10.3625 9.05209 9.04373 10.3774 9.04767 12.0078C9.0516 13.6378 10.3764 14.9561 12.0064 14.9522C13.6369 14.9482 14.9556 13.6234 14.9517 11.9934C14.9477 10.3629 13.6229 9.04422 11.9929 9.04816Z" fill="#293960"/>
</svg>
