<svg width="24" height="24" viewBox="0 0 24 24" fill="none" xmlns="http://www.w3.org/2000/svg">
<path d="M19.4968 2.16016H4.50252C3.20927 2.16016 2.15967 3.20976 2.15967 4.50301V19.4973C2.15967 20.7906 3.20927 21.8402 4.50252 21.8402H19.4968C20.7901 21.8402 21.8397 20.7906 21.8397 19.4973V4.50301C21.8397 3.20976 20.7901 2.16016 19.4968 2.16016ZM8.2511 9.6573V18.5602H5.43967V9.6573H8.2511ZM5.43967 7.0661C5.43967 6.4101 6.00195 5.90873 6.84538 5.90873C7.68881 5.90873 8.2183 6.4101 8.2511 7.0661C8.2511 7.7221 7.7263 8.25158 6.84538 8.25158C6.00195 8.25158 5.43967 7.7221 5.43967 7.0661ZM18.5597 18.5602H15.7482C15.7482 18.5602 15.7482 14.2212 15.7482 13.8744C15.7482 12.9373 15.2797 12.0002 14.1082 11.9814H14.0708C12.9368 11.9814 12.4682 12.9467 12.4682 13.8744C12.4682 14.3008 12.4682 18.5602 12.4682 18.5602H9.65681V9.6573H12.4682V10.8568C12.4682 10.8568 13.3726 9.6573 15.1906 9.6573C17.0509 9.6573 18.5597 10.9365 18.5597 13.5277V18.5602Z" fill="#293960"/>
</svg>
