<svg width="33" height="33" viewBox="0 0 33 33" fill="none" xmlns="http://www.w3.org/2000/svg">
<path d="M15.2745 6.44708C15.4479 5.31581 17.0779 5.31581 17.2514 6.44708L18.3136 13.3754C18.3798 13.8072 18.7187 14.1461 19.1505 14.2123L26.0788 15.2745C27.2101 15.4479 27.2101 17.0779 26.0788 17.2514L19.1505 18.3136C18.7187 18.3798 18.3798 18.7187 18.3136 19.1505L17.2514 26.0788C17.0779 27.2101 15.4479 27.2101 15.2745 26.0788L14.2123 19.1505C14.1461 18.7187 13.8072 18.3798 13.3754 18.3136L6.44708 17.2514C5.31581 17.0779 5.31581 15.4479 6.44708 15.2745L13.3754 14.2123C13.8072 14.1461 14.1461 13.8072 14.2123 13.3754L15.2745 6.44708Z" fill="#727B8E" fill-opacity="0.42"/>
<path d="M22.074 12.0419C21.3911 12.4917 20.5024 11.9022 20.6511 11.0981C20.6839 10.9207 20.7677 10.7568 20.8922 10.6263L23.0486 8.36622C23.1729 8.23592 23.3727 8.21352 23.5228 8.31307C23.6729 8.41261 23.73 8.60543 23.6583 8.77064L22.4149 11.6363C22.3431 11.8017 22.2246 11.9427 22.074 12.0419Z" fill="#727B8E" fill-opacity="0.42"/>
<path d="M10.4987 12.0419C11.1817 12.4917 12.0704 11.9022 11.9216 11.0981C11.8888 10.9207 11.805 10.7568 11.6805 10.6263L9.52419 8.36622C9.39988 8.23592 9.20003 8.21352 9.04995 8.31307C8.89987 8.41261 8.84278 8.60543 8.91446 8.77064L10.1579 11.6363C10.2297 11.8017 10.3481 11.9427 10.4987 12.0419Z" fill="#727B8E" fill-opacity="0.42"/>
<path d="M21.9183 20.2494C21.2353 19.7996 20.3466 20.389 20.4954 21.1932C20.5282 21.3705 20.6119 21.5345 20.7364 21.665L22.8928 23.925C23.0171 24.0553 23.217 24.0777 23.367 23.9782C23.5171 23.8787 23.5742 23.6858 23.5025 23.5206L22.2591 20.655C22.1873 20.4896 22.0689 20.3486 21.9183 20.2494Z" fill="#727B8E" fill-opacity="0.42"/>
<path d="M10.343 20.2494C11.0259 19.7996 11.9146 20.389 11.7659 21.1932C11.7331 21.3705 11.6493 21.5345 11.5248 21.665L9.36843 23.925C9.24412 24.0553 9.04426 24.0777 8.89419 23.9782C8.74411 23.8787 8.68702 23.6858 8.7587 23.5206L10.0021 20.655C10.0739 20.4896 10.1923 20.3486 10.343 20.2494Z" fill="#727B8E" fill-opacity="0.42"/>
</svg>
