<svg width="24" height="24" viewBox="0 0 24 24" fill="none" xmlns="http://www.w3.org/2000/svg">
<path d="M5.20041 1.91992C3.38891 1.91992 1.92041 3.38842 1.92041 5.19992V18.3199C1.92041 20.1314 3.38891 21.5999 5.20041 21.5999H18.3204C20.1319 21.5999 21.6004 20.1314 21.6004 18.3199V5.19992C21.6004 3.38842 20.1319 1.91992 18.3204 1.91992H5.20041ZM6.17782 6.13706H9.89711L12.5383 9.89021L15.7433 6.13706H16.9147L13.0673 10.6416L17.8116 17.3828H14.0932L11.0283 13.0284L7.30898 17.3828H6.13755L10.4993 12.277L6.17782 6.13706ZM7.97157 7.07421L14.5819 16.4456H16.0178L9.40749 7.07421H7.97157Z" fill="#293960"/>
</svg>
